# xmcd
#
# Track frame offsets: 
#        150
#        15736
#        29736
#        42266
#        53872
#        66397
#        79401
#        91097
#        103617
#        117676
#        129477
#        143101
#        157538
#        170610
#        184675
#        197881
#        210002
#        225281
#        239680
#        253071
#        268066
#        280889
#        295419
#        310732
#        322740
#        335269
#
# Disc length: 4656 seconds
#
# Revision: 0
# Processed by: cddbd v1.5.2PL0 Copyright (c) Steve Scherf et al.
# Submitted via: ExactAudioCopyFreeDBPlugin 1.0
#
DISCID=75122e1a
DTITLE=Muddy Waters - Rollin' Stone CD1 (Compilation Blues Characters)
DYEAR=1900
DGENRE=Blues
TTITLE0=Country blues
TTITLE1=I be's troubled
TTITLE2=Hard day blues
TTITLE3=Gypsy woman
TTITLE4=I can't be satisfied
TTITLE5=Train fare home blues
TTITLE6=You're gonna miss me
TTITLE7=Canary bird
TTITLE8=Screamin' and cryin'
TTITLE9=Last time I fool around with you
TTITLE10=Rollin' and tumblin' (Part 1)
TTITLE11=Rollin' stone
TTITLE12=Walkin' blues
TTITLE13=You're gonna need my help
TTITLE14=Louisiana blues
TTITLE15=Long distance call
TTITLE16=Honey bee
TTITLE17=Country boy
TTITLE18=She moves me
TTITLE19=Still a fool
TTITLE20=Stuff you gotta watch
TTITLE21=Please have mercy
TTITLE22=Standing around crying
TTITLE23=My life is ruined
TTITLE24=Turn the lamp down low
TTITLE25=Mad love
EXTD=
EXTT0=
EXTT1=
EXTT2=
EXTT3=
EXTT4=
EXTT5=
EXTT6=
EXTT7=
EXTT8=
EXTT9=
EXTT10=
EXTT11=
EXTT12=
EXTT13=
EXTT14=
EXTT15=
EXTT16=
EXTT17=
EXTT18=
EXTT19=
EXTT20=
EXTT21=
EXTT22=
EXTT23=
EXTT24=
EXTT25=
PLAYORDER=
